<svg width="158" height="47" viewBox="0 0 158 47" fill="none" xmlns="http://www.w3.org/2000/svg">
<path d="M19.032 46.768C15.448 46.768 12.0133 46.2987 8.728 45.36C5.44267 44.3787 2.79733 43.12 0.792 41.584L4.312 33.776C6.232 35.1413 8.49333 36.272 11.096 37.168C13.7413 38.0213 16.408 38.448 19.096 38.448C21.144 38.448 22.7867 38.256 24.024 37.872C25.304 37.4453 26.2427 36.8693 26.84 36.144C27.4373 35.4187 27.736 34.5867 27.736 33.648C27.736 32.4533 27.2667 31.5147 26.328 30.832C25.3893 30.1067 24.152 29.5307 22.616 29.104C21.08 28.6347 19.3733 28.208 17.496 27.824C15.6613 27.3973 13.8053 26.8853 11.928 26.288C10.0933 25.6907 8.408 24.9227 6.872 23.984C5.336 23.0453 4.07733 21.808 3.096 20.272C2.15733 18.736 1.688 16.7733 1.688 14.384C1.688 11.824 2.37067 9.49866 3.736 7.408C5.144 5.27466 7.23467 3.58933 10.008 2.352C12.824 1.072 16.344 0.431999 20.568 0.431999C23.384 0.431999 26.1573 0.773332 28.888 1.456C31.6187 2.096 34.0293 3.07733 36.12 4.4L32.92 12.272C30.8293 11.0773 28.7387 10.2027 26.648 9.648C24.5573 9.05067 22.5093 8.752 20.504 8.752C18.4987 8.752 16.856 8.98667 15.576 9.456C14.296 9.92533 13.3787 10.544 12.824 11.312C12.2693 12.0373 11.992 12.8907 11.992 13.872C11.992 15.024 12.4613 15.9627 13.4 16.688C14.3387 17.3707 15.576 17.9253 17.112 18.352C18.648 18.7787 20.3333 19.2053 22.168 19.632C24.0453 20.0587 25.9013 20.5493 27.736 21.104C29.6133 21.6587 31.32 22.4053 32.856 23.344C34.392 24.2827 35.6293 25.52 36.568 27.056C37.5493 28.592 38.04 30.5333 38.04 32.88C38.04 35.3973 37.336 37.7013 35.928 39.792C34.52 41.8827 32.408 43.568 29.592 44.848C26.8187 46.128 23.2987 46.768 19.032 46.768ZM45.1245 46V1.2H55.4925V46H45.1245ZM66.1245 46V1.2H85.5165C89.5272 1.2 92.9832 1.86133 95.8845 3.184C98.7858 4.464 101.026 6.32 102.605 8.752C104.183 11.184 104.973 14.0853 104.973 17.456C104.973 20.784 104.183 23.664 102.605 26.096C101.026 28.528 98.7858 30.4053 95.8845 31.728C92.9832 33.008 89.5272 33.648 85.5165 33.648H71.8845L76.4925 28.976V46H66.1245ZM76.4925 30.128L71.8845 25.2H84.9405C88.1405 25.2 90.5298 24.5173 92.1085 23.152C93.6872 21.7867 94.4765 19.888 94.4765 17.456C94.4765 14.9813 93.6872 13.0613 92.1085 11.696C90.5298 10.3307 88.1405 9.648 84.9405 9.648H71.8845L76.4925 4.72V30.128ZM112.375 46V1.2H132.727C137.591 1.2 141.879 2.13866 145.591 4.016C149.303 5.85066 152.204 8.432 154.295 11.76C156.385 15.088 157.431 19.0347 157.431 23.6C157.431 28.1227 156.385 32.0693 154.295 35.44C152.204 38.768 149.303 41.3707 145.591 43.248C141.879 45.0827 137.591 46 132.727 46H112.375ZM122.743 37.488H132.215C135.201 37.488 137.783 36.9333 139.958 35.824C142.177 34.672 143.884 33.0507 145.079 30.96C146.316 28.8693 146.935 26.416 146.935 23.6C146.935 20.7413 146.316 18.288 145.079 16.24C143.884 14.1493 142.177 12.5493 139.958 11.44C137.783 10.288 135.201 9.712 132.215 9.712H122.743V37.488Z" fill="#D9D9D9"/>
</svg>
